<svg width="40" height="40" viewBox="0 0 40 40" fill="none" xmlns="http://www.w3.org/2000/svg">
<circle cx="20" cy="20" r="20" fill="#FF0000"/>
<path d="M20.5 24.0909C22.3147 24.0909 23.7857 22.6256 23.7857 20.8182C23.7857 19.0107 22.3147 17.5454 20.5 17.5454C18.6854 17.5454 17.2143 19.0107 17.2143 20.8182C17.2143 22.6256 18.6854 24.0909 20.5 24.0909Z" fill="white"/>
<path d="M30.7679 14.2727H26.5067C26.3527 14.2727 26.1617 14.1735 26.0128 14.017L24.6123 11.8284C24.0424 11 23.7857 11 22.8616 11H18.1384C17.2143 11 16.9062 11 16.3893 11.8289L14.9872 14.017C14.8732 14.1408 14.713 14.2727 14.5446 14.2727V13.4545C14.5446 13.346 14.5014 13.242 14.4243 13.1653C14.3473 13.0886 14.2429 13.0455 14.1339 13.0455H12.0804C11.9714 13.0455 11.867 13.0886 11.7899 13.1653C11.7129 13.242 11.6696 13.346 11.6696 13.4545V14.2727H10.2321C9.90536 14.2727 9.59196 14.402 9.36089 14.6322C9.12981 14.8623 9 15.1745 9 15.5V27.7727C9 28.0982 9.12981 28.4104 9.36089 28.6405C9.59196 28.8707 9.90536 29 10.2321 29H30.7679C31.0946 29 31.408 28.8707 31.6391 28.6405C31.8702 28.4104 32 28.0982 32 27.7727V15.5C32 15.1745 31.8702 14.8623 31.6391 14.6322C31.408 14.402 31.0946 14.2727 30.7679 14.2727ZM20.7315 25.7222C19.7381 25.7686 18.7539 25.5147 17.9081 24.9937C17.0622 24.4727 16.3944 23.709 15.9924 22.803C15.5904 21.897 15.4729 20.891 15.6555 19.9173C15.838 18.9436 16.3121 18.0477 17.0153 17.3472C17.7185 16.6468 18.618 16.1746 19.5956 15.9928C20.5732 15.811 21.5831 15.928 22.4927 16.3284C23.4023 16.7288 24.169 17.394 24.6921 18.2365C25.2151 19.079 25.4701 20.0593 25.4234 21.0488C25.3646 22.2693 24.8514 23.4243 23.9839 24.2883C23.1164 25.1524 21.9569 25.6636 20.7315 25.7222V25.7222Z" fill="white"/>
</svg>
