<svg width="41" height="41" viewBox="0 0 41 41" fill="none" xmlns="http://www.w3.org/2000/svg">
<circle cx="20.5" cy="20.5" r="20.5" fill="#FF0000"/>
<path d="M29.9418 13.1071H28.7189C28.7177 13.1071 28.7165 13.1076 28.7156 13.1085C28.7148 13.1094 28.7143 13.1105 28.7143 13.1118V28.7143C28.7143 29.15 28.8874 29.5679 29.1955 29.876C29.5036 30.1841 29.9214 30.3571 30.3572 30.3571C30.7929 30.3571 31.2107 30.1841 31.5188 29.876C31.8269 29.5679 32 29.15 32 28.7143V15.1653C32 14.6195 31.7832 14.096 31.3972 13.71C31.0112 13.324 30.4877 13.1071 29.9418 13.1071V13.1071Z" fill="white"/>
<path d="M27.0714 28.7143V11.0536C27.0714 10.7839 27.0183 10.5169 26.9151 10.2677C26.8119 10.0186 26.6606 9.79217 26.47 9.60148C26.2793 9.41079 26.0529 9.25952 25.8037 9.15632C25.5546 9.05312 25.2875 9 25.0179 9H11.0536C10.5089 9 9.9866 9.21636 9.60148 9.60148C9.21636 9.9866 9 10.5089 9 11.0536V29.125C9 29.8875 9.3029 30.6188 9.84207 31.1579C10.3812 31.6971 11.1125 32 11.875 32H29.4767C29.4844 32.0001 29.4922 31.9986 29.4993 31.9956C29.5065 31.9927 29.5131 31.9884 29.5186 31.9829C29.5241 31.9774 29.5284 31.9708 29.5314 31.9636C29.5343 31.9564 29.5358 31.9487 29.5357 31.941C29.5357 31.9281 29.5314 31.9155 29.5235 31.9053C29.5156 31.8951 29.5046 31.8878 29.4921 31.8845C28.7972 31.6939 28.1841 31.2805 27.7468 30.7078C27.3096 30.1352 27.0723 29.4348 27.0714 28.7143V28.7143ZM12.2857 13.9286C12.2857 13.7107 12.3723 13.5018 12.5263 13.3477C12.6804 13.1937 12.8893 13.1071 13.1071 13.1071H16.3929C16.6107 13.1071 16.8196 13.1937 16.9737 13.3477C17.1277 13.5018 17.2143 13.7107 17.2143 13.9286V17.2143C17.2143 17.4321 17.1277 17.6411 16.9737 17.7951C16.8196 17.9492 16.6107 18.0357 16.3929 18.0357H13.1071C12.8893 18.0357 12.6804 17.9492 12.5263 17.7951C12.3723 17.6411 12.2857 17.4321 12.2857 17.2143V13.9286ZM22.9643 27.8929H13.1302C12.6882 27.8929 12.3088 27.553 12.2867 27.111C12.2814 26.9999 12.2986 26.8889 12.3375 26.7847C12.3763 26.6805 12.4358 26.5853 12.5125 26.5048C12.5892 26.4243 12.6815 26.3602 12.7837 26.3164C12.8859 26.2726 12.9959 26.25 13.1071 26.25H22.9412C23.3832 26.25 23.7626 26.5899 23.7847 27.0319C23.79 27.143 23.7728 27.254 23.734 27.3582C23.6952 27.4624 23.6356 27.5576 23.5589 27.6381C23.4822 27.7186 23.3899 27.7827 23.2877 27.8265C23.1855 27.8703 23.0755 27.8928 22.9643 27.8929V27.8929ZM22.9643 24.6071H13.1302C12.6882 24.6071 12.3088 24.2673 12.2867 23.8252C12.2814 23.7142 12.2986 23.6032 12.3375 23.499C12.3763 23.3948 12.4358 23.2996 12.5125 23.2191C12.5892 23.1386 12.6815 23.0745 12.7837 23.0307C12.8859 22.9869 12.9959 22.9643 13.1071 22.9643H22.9412C23.3832 22.9643 23.7626 23.3042 23.7847 23.7462C23.79 23.8572 23.7728 23.9682 23.734 24.0724C23.6952 24.1766 23.6356 24.2719 23.5589 24.3524C23.4822 24.4329 23.3899 24.497 23.2877 24.5408C23.1855 24.5845 23.0755 24.6071 22.9643 24.6071V24.6071ZM22.9643 21.3214H13.1302C12.6882 21.3214 12.3088 20.9816 12.2867 20.5395C12.2814 20.4285 12.2986 20.3175 12.3375 20.2133C12.3763 20.1091 12.4358 20.0138 12.5125 19.9333C12.5892 19.8528 12.6815 19.7888 12.7837 19.745C12.8859 19.7012 12.9959 19.6786 13.1071 19.6786H22.9412C23.3832 19.6786 23.7626 20.0184 23.7847 20.4605C23.79 20.5715 23.7728 20.6825 23.734 20.7867C23.6952 20.8909 23.6356 20.9862 23.5589 21.0667C23.4822 21.1472 23.3899 21.2112 23.2877 21.255C23.1855 21.2988 23.0755 21.3214 22.9643 21.3214V21.3214ZM22.9643 18.0357H19.7017C19.2596 18.0357 18.8802 17.6958 18.8582 17.2538C18.8528 17.1428 18.8701 17.0318 18.9089 16.9276C18.9477 16.8234 19.0073 16.7281 19.084 16.6476C19.1607 16.5671 19.2529 16.503 19.3551 16.4592C19.4573 16.4155 19.5674 16.3929 19.6786 16.3929H22.9412C23.3832 16.3929 23.7626 16.7327 23.7847 17.1748C23.79 17.2858 23.7728 17.3968 23.734 17.501C23.6952 17.6052 23.6356 17.7004 23.5589 17.7809C23.4822 17.8614 23.3899 17.9255 23.2877 17.9693C23.1855 18.0131 23.0755 18.0357 22.9643 18.0357V18.0357ZM22.9643 14.75H19.7017C19.2596 14.75 18.8802 14.4101 18.8582 13.9681C18.8528 13.857 18.8701 13.746 18.9089 13.6418C18.9477 13.5376 19.0073 13.4424 19.084 13.3619C19.1607 13.2814 19.2529 13.2173 19.3551 13.1735C19.4573 13.1297 19.5674 13.1072 19.6786 13.1071H22.9412C23.3832 13.1071 23.7626 13.447 23.7847 13.889C23.79 14.0001 23.7728 14.1111 23.734 14.2153C23.6952 14.3195 23.6356 14.4147 23.5589 14.4952C23.4822 14.5757 23.3899 14.6398 23.2877 14.6836C23.1855 14.7274 23.0755 14.75 22.9643 14.75Z" fill="white"/>
</svg>
