<svg width="38" height="39" viewBox="0 0 38 39" fill="none" xmlns="http://www.w3.org/2000/svg">
<circle cx="19" cy="20" r="19" fill="white"/>
<path d="M18.9417 0.263184C8.49713 0.263184 0 8.95174 0 19.6316C0 30.3115 8.49713 39 18.9417 39C29.3863 39 37.8834 30.3115 37.8834 19.6316C37.8834 8.95174 29.3863 0.263184 18.9417 0.263184ZM26.8341 29.9846L21.4919 24.5221C19.7064 25.7785 17.5262 26.3071 15.3792 26.0044C13.2321 25.7017 11.2732 24.5895 9.88678 22.886C8.50039 21.1825 7.78665 19.0107 7.8856 16.7968C7.98456 14.5829 8.88907 12.4867 10.4216 10.9196C11.9542 9.3525 14.0042 8.42761 16.1693 8.32643C18.3344 8.22525 20.4584 8.95507 22.1244 10.3727C23.7903 11.7903 24.8781 13.7934 25.1741 15.9888C25.4702 18.1842 24.9531 20.4136 23.7245 22.2393L29.0666 27.7018L26.8341 29.9846Z" fill="#FF0000"/>
<path d="M16.4753 22.7588C19.5265 22.7588 22 20.2296 22 17.1096C22 13.9897 19.5265 11.4605 16.4753 11.4605C13.4242 11.4605 10.9507 13.9897 10.9507 17.1096C10.9507 20.2296 13.4242 22.7588 16.4753 22.7588Z" fill="#FF0000"/>
</svg>
