<svg width="60" height="60" viewBox="0 0 60 60" fill="none" xmlns="http://www.w3.org/2000/svg">
<path d="M30.9044 1.37344C30.9021 1.37176 30.9001 1.36973 30.8984 1.36743C30.5976 1.17592 30.2492 1.0723 29.8926 1.06826C29.536 1.06422 29.1853 1.15992 28.8802 1.34456C26.4129 2.82475 23.7966 6.43321 21.7027 11.2465C19.5947 16.1002 18.3662 21.4034 18.3447 25.8061C18.3328 27.2122 18.4196 28.6175 18.6043 30.0114C17.0488 31.4173 15.9463 32.9265 15.3177 34.5015C13.1415 40.0042 16.3298 45.4296 17.7976 47.5001C18.0054 47.7951 18.2784 48.0381 18.5955 48.2103C18.9126 48.3825 19.2651 48.4792 19.6256 48.4929C19.9862 48.5066 20.345 48.4369 20.6742 48.2892C21.0034 48.1416 21.2942 47.9199 21.5237 47.6416L21.5324 47.633L25.3602 42.9232C25.4196 42.9726 25.4751 43.0167 25.5252 43.0581C26.0972 43.5264 26.8127 43.7839 27.552 43.7874L31.7172 43.8127C32.4564 43.8188 33.1751 43.5699 33.7522 43.108L33.9108 42.9816L37.68 47.7284L37.6886 47.7371C37.8929 47.9915 38.148 48.2004 38.4376 48.3506C38.7273 48.5008 39.0451 48.5888 39.3707 48.6092C39.6963 48.6295 40.0226 48.5817 40.3287 48.4688C40.6348 48.3558 40.914 48.1803 41.1483 47.9533C41.2412 47.8617 41.3263 47.7626 41.4028 47.657C42.909 45.5982 46.1709 40.2251 44.0333 34.6818C43.4262 33.111 42.3458 31.5951 40.8166 30.1669C41.0223 28.7729 41.128 27.366 41.1328 25.9569C41.1696 21.5337 40.0355 16.2369 38.019 11.4245C36.0124 6.63406 33.4176 2.96979 30.9044 1.37344ZM35.2946 20.0991C35.2889 21.1897 34.9598 22.254 34.3491 23.1575C33.7383 24.061 32.8733 24.763 31.8635 25.1748C30.8537 25.5866 29.7444 25.6897 28.6761 25.4709C27.6077 25.2522 26.6282 24.7214 25.8616 23.9459C25.0949 23.1703 24.5755 22.1848 24.3691 21.114C24.1626 20.0432 24.2784 18.9352 24.7018 17.9302C25.1252 16.9252 25.8372 16.0683 26.7477 15.468C27.6582 14.8677 28.7262 14.551 29.8167 14.5578C30.5418 14.5565 31.26 14.6994 31.9293 14.9782C32.5987 15.257 33.2059 15.6661 33.7156 16.1818C34.2254 16.6974 34.6275 17.3093 34.8986 17.9819C35.1696 18.6544 35.3043 19.3741 35.2946 20.0991Z" fill="#FF0000"/>
<path d="M32.0389 44.6184C31.7491 44.8416 31.5508 45.1628 31.4812 45.5219C31.3431 46.2348 31.1997 46.9463 31.045 47.6545C30.7323 49.0874 28.6998 49.1235 28.3253 47.7052L27.751 45.5031C27.6993 45.2191 27.5668 44.956 27.3693 44.7453C27.1718 44.5347 26.9178 44.3855 26.6377 44.3157C26.3575 44.2458 26.0632 44.2582 25.7899 44.3514C25.5167 44.4446 25.2761 44.6147 25.0971 44.8412C24.3099 45.8442 23.8788 47.0805 23.8716 48.3555C23.8694 48.8417 23.8616 50.3187 26.2613 53.5454C26.9516 54.4712 27.6892 55.3608 28.4712 56.2106C28.6083 56.3566 28.7733 56.4738 28.9565 56.555C29.1396 56.6363 29.3372 56.68 29.5375 56.6837C29.7379 56.6874 29.9369 56.6509 30.1229 56.5765C30.3089 56.502 30.4782 56.391 30.6206 56.2501L30.6473 56.2238C31.44 55.3827 32.1889 54.5014 32.8912 53.5835C35.3286 50.3826 35.3372 48.9049 35.34 48.4194C35.3502 47.1412 34.9285 45.8971 34.1432 44.8885C33.8999 44.5738 33.5416 44.3685 33.147 44.3179C32.7524 44.2672 32.3538 44.3753 32.0389 44.6184Z" fill="#FF0000"/>
</svg>
