<svg width="40" height="40" viewBox="0 0 40 40" fill="none" xmlns="http://www.w3.org/2000/svg">
<circle cx="20" cy="20" r="20" fill="#FF0000"/>
<path d="M32.3333 27.187C32.1 27.1868 31.8694 27.1377 31.6562 27.0427C31.6067 27.0207 31.5594 26.9938 31.5151 26.9625L27.2073 23.9302C26.9888 23.7764 26.8105 23.5724 26.6874 23.3352C26.5643 23.0981 26.5001 22.8349 26.5 22.5677V18.4323C26.5001 18.1651 26.5643 17.9019 26.6874 17.6648C26.8105 17.4276 26.9888 17.2236 27.2073 17.0698L31.5151 14.0375C31.5594 14.0062 31.6067 13.9793 31.6562 13.9573C31.91 13.8445 32.1879 13.7969 32.4648 13.8188C32.7416 13.8406 33.0086 13.9314 33.2414 14.0827C33.4743 14.234 33.6657 14.4411 33.7981 14.6851C33.9306 14.9292 34 15.2025 34 15.4802V25.5198C34 25.9618 33.8244 26.3857 33.5118 26.6983C33.1993 27.0109 32.7754 27.1865 32.3333 27.1865V27.187ZM22.125 28H12.5417C11.6027 27.999 10.7024 27.6256 10.0384 26.9616C9.37441 26.2976 9.00097 25.3973 9 24.4583V16.5417C9.00097 15.6027 9.37441 14.7024 10.0384 14.0384C10.7024 13.3744 11.6027 13.001 12.5417 13H22.15C23.0823 13.0011 23.9762 13.372 24.6354 14.0312C25.2947 14.6905 25.6656 15.5843 25.6667 16.5167V24.4583C25.6657 25.3973 25.2923 26.2976 24.6283 26.9616C23.9643 27.6256 23.064 27.999 22.125 28V28Z" fill="white"/>
</svg>
